<?xml version="1.0" standalone="no"?>
<!DOCTYPE svg PUBLIC "-//W3C//DTD SVG 20010904//EN"
 "http://www.w3.org/TR/2001/REC-SVG-20010904/DTD/svg10.dtd">
<svg version="1.0" xmlns="http://www.w3.org/2000/svg"
 width="1024.000000pt" height="1024.000000pt" viewBox="0 0 1024.000000 1024.000000"
 preserveAspectRatio="xMidYMid meet">

<g transform="translate(0.000000,1024.000000) scale(0.100000,-0.100000)"
stroke="none">
<path fill="currentColor" d="M1250 9838 c-246 -51 -465 -191 -620 -396 -113 -149 -190 -357 -210
-570 -13 -142 -14 -7280 0 -7442 17 -212 78 -396 182 -551 168 -252 425 -413
741 -464 80 -13 564 -15 3787 -15 2370 0 3726 4 3781 10 185 21 387 94 527
189 202 137 358 360 429 616 l28 100 3 3740 c2 2611 0 3772 -8 3846 -18 182
-59 307 -152 465 -54 92 -169 221 -261 290 -80 60 -258 146 -367 176 l-85 23
-3840 2 c-3809 2 -3841 1 -3935 -19z m7735 -378 c191 -38 368 -175 455 -354
77 -158 71 226 70 -3965 0 -4196 7 -3809 -71 -3968 -70 -142 -219 -278 -365
-332 -147 -56 42 -53 -3394 -54 -1741 -1 -3428 0 -3750 3 -580 6 -586 6 -650
29 -247 88 -392 239 -466 486 -18 57 -18 225 -22 3695 -2 2282 1 3691 7 3785
12 185 38 276 111 387 106 162 285 274 474 297 33 4 1744 6 3801 5 2846 -2
3754 -5 3800 -14z"/>
<path fill="currentColor" d="M4036 8800 c-326 -52 -657 -236 -858 -477 -140 -167 -249 -371 -297
-555 -51 -198 -65 -321 -65 -568 0 -204 3 -248 22 -335 26 -122 73 -265 118
-364 105 -229 338 -484 559 -613 102 -59 261 -127 363 -156 90 -25 111 -27
292 -27 224 0 284 9 445 68 228 82 388 183 544 340 216 219 346 460 411 762
27 125 38 408 21 541 -29 227 -93 459 -166 604 -89 178 -272 396 -435 519
-142 107 -342 195 -548 242 -101 23 -317 33 -406 19z m719 -920 c177 -260 262
-350 425 -450 60 -37 102 -70 106 -83 4 -12 7 -80 7 -152 -1 -304 -95 -572
-288 -812 -141 -176 -337 -303 -565 -365 -121 -33 -363 -33 -494 0 -233 58
-439 200 -596 413 -137 184 -208 387 -231 654 -13 152 -2 291 26 311 9 7 53
15 98 19 45 3 127 11 182 16 388 39 781 211 1140 498 55 44 103 77 106 73 3
-4 41 -59 84 -122z"/>
<path fill="currentColor" d="M7533 6672 c-74 -27 -128 -65 -175 -127 -41 -52 -348 -608 -645
-1167 l-147 -277 -66 36 c-36 20 -139 82 -230 138 -540 332 -856 452 -1205
458 l-98 2 -57 -155 c-32 -85 -69 -180 -83 -211 -105 -231 -377 -631 -584
-858 l-49 -54 -105 125 c-139 168 -249 323 -365 514 -139 232 -190 341 -282
602 -14 41 -16 42 -58 42 -73 0 -260 -30 -378 -60 -263 -67 -476 -172 -651
-320 -206 -174 -377 -486 -446 -813 -21 -99 -22 -124 -23 -931 -1 -760 0 -832
16 -850 l16 -21 1872 0 1872 0 19 24 c19 23 19 47 17 827 -2 442 0 804 3 804
3 0 201 -66 440 -146 401 -135 441 -147 525 -151 71 -4 103 -2 145 12 76 25
150 77 197 138 60 77 862 1733 939 1937 51 135 50 234 -2 326 -32 54 -105 120
-163 146 -67 29 -181 34 -249 10z m-3273 -2644 c59 -31 82 -66 88 -130 3 -44
0 -59 -20 -87 -38 -57 -73 -76 -133 -76 -60 0 -95 19 -133 76 -20 28 -23 43
-20 87 3 31 13 64 24 80 22 30 97 72 129 72 11 0 41 -10 65 -22z"/>
<path fill="currentColor" d="M7609 4151 c-27 -27 -29 -35 -29 -100 0 -59 4 -74 24 -98 20 -23 34
-29 82 -33 l59 -5 3 -86 3 -85 -78 -18 c-89 -21 -219 -85 -299 -147 -148 -114
-249 -295 -269 -481 -12 -109 -79 -101 776 -94 403 4 736 9 740 12 28 17 -8
187 -62 301 -99 208 -270 349 -491 405 l-88 23 0 87 0 88 49 0 c72 0 103 29
109 102 2 31 -1 72 -8 92 -20 61 -40 66 -280 66 l-212 0 -29 -29z"/>
<path fill="currentColor" d="M7015 2861 c-47 -20 -60 -48 -59 -132 1 -87 13 -121 51 -138 37 -17
1669 -15 1703 2 42 21 62 72 58 150 -3 58 -8 71 -31 95 l-27 27 -838 2 c-460
1 -846 -2 -857 -6z"/>
<path fill="currentColor" d="M1373 2516 l-28 -24 1 -364 c1 -393 3 -410 57 -440 17 -10 792 -12
3760 -13 l3739 0 24 28 24 28 0 380 0 380 -25 24 -24 25 -3750 0 -3750 0 -28
-24z"/>
</g>
</svg>
